<svg id="Layer_1" data-name="Layer 1" xmlns="http://www.w3.org/2000/svg" viewBox="0 0 841.89 595.28"><defs><style>.cls-1{fill:#fff;}</style></defs><title>FOXTAIL FINAL</title><path class="cls-1" d="M716.58,279.48q2.94-.5,7,3.3a58.07,58.07,0,0,1,7.59,8.81,64.48,64.48,0,0,1,5.87,10q2.32,5,1.83,7.22a73.54,73.54,0,0,1-6,12.47q-3.3,5.38-6.73,11t-7,11.5a117.38,117.38,0,0,0-7,13.7,15.8,15.8,0,0,1-6.24-3.54,38.38,38.38,0,0,1-6-6.49,35.48,35.48,0,0,1-4.28-7.58,12.17,12.17,0,0,1-1.1-6.61c.81-3.26,1.92-6.85,3.3-10.76s3-8,4.77-12.24,3.51-8.56,5.14-13a112.85,112.85,0,0,0,3.92-12.73C712.38,281.78,714,280.06,716.58,279.48Z"/><path class="cls-1" d="M250.8,318.84q-9.5,1.89-19.58,3.44t-19.59,3q-9,1.42-17.8,2.85T176,331.42q17.8-27.3,35.61-49.62a13.32,13.32,0,0,0,1-9.85,26.31,26.31,0,0,0-2-5c-12.09-3.72-25.3-3.89-36.33,1.7,1.37-.27,2.72-.59,4.11-.84q-10.46,15.9-22.67,35.25t-24.57,40.47a203.91,203.91,0,0,0-33.48,16.27A166.23,166.23,0,0,0,81.77,370.7Q74.92,376,68.2,382.2a12.48,12.48,0,0,0-.15,1.85c0,6.73,5.42,12.29,12.47,13.23A120.87,120.87,0,0,1,92.82,388c1.41-.92,2.85-1.82,4.3-2.7a164.55,164.55,0,0,1,14.57-7.86q-7.6,13.77-14.24,27.06T85.34,430.17Q79.88,442.53,76,453.68a133.66,133.66,0,0,0-5.58,20.41q-3.33,8.31-2,15.43t4.75,10.92a9.11,9.11,0,0,0,8,3.33q4.5-.48,7.83-7.36a222.7,222.7,0,0,1,9.85-27.9q6.52-15.54,15.31-32.76T133.41,400q10.56-18.51,22-36.79a258.34,258.34,0,0,1,32.52-5.34q15.92-1.54,29.92-2.73l8.3-.48c2.69-.16,5.38-.39,8.08-.71.95-.16,2.13-1.1,3.56-2.85a53.08,53.08,0,0,0,4.39-6.41q2.25-3.79,4.51-8.19a63.46,63.46,0,0,0,3.56-8.19,34.51,34.51,0,0,0,1.66-6.53C252.11,320,251.75,319,250.8,318.84Z"/><path class="cls-1" d="M680.94,351.27q3.57-1.66,8.31.59a23.88,23.88,0,0,1,8.31,6.65,25.61,25.61,0,0,1,5,10.21A15,15,0,0,1,700.89,380c.31-.32.15,0-.48.95s-1.51,2.21-2.61,3.79l-3.8,5.47q-2.13,3.07-3.8,5.69-4.26,6.18-9.37,13.65t-10.21,15.2q-5.11,7.71-9.74,15.07t-7.83,13.06a92.78,92.78,0,0,0-4.63,9.14q-1.42,3.44,0,3.44h1.66a51.78,51.78,0,0,0,15-7.71,113.58,113.58,0,0,0,14.13-12.23q6.76-6.88,13.17-14.6l12.34-14.84,4.28-5.7a3.4,3.4,0,0,1,3.8-.59,11.85,11.85,0,0,1,4.39,2.85,13,13,0,0,1,3,4.51,3.85,3.85,0,0,1-.48,4.15l.24-.47Q708,436.27,693.29,452.16a285.85,285.85,0,0,1-29.67,28q-2.39,1.67-5.82,3.91a61.2,61.2,0,0,1-7.48,4.16,58.27,58.27,0,0,1-8.55,3.2,31.47,31.47,0,0,1-8.78,1.31q-9.25-.24-12.46-7.24T619,468.07a79,79,0,0,1,5.22-16.14l-.24.23a231.9,231.9,0,0,1,13.65-27.53Q646.53,409,656,393.29l12-20.77q5.81-10.09,9.85-18.4A9.29,9.29,0,0,1,680.94,351.27Z"/><path class="cls-1" d="M295.55,345.87q9.94,2,14.56,9.71a37.07,37.07,0,0,1,5.1,17.41,21.84,21.84,0,0,1,3.49,8.47,57.67,57.67,0,0,1,1,11.2,21.94,21.94,0,0,0-.62,4,43.27,43.27,0,0,1-.62,4.73,98.07,98.07,0,0,1-6.35,21.78A145.12,145.12,0,0,1,301,444.55a152.87,152.87,0,0,1-14.69,19.67,119.75,119.75,0,0,1-17.17,16.17,85,85,0,0,1-18.3,10.83,46,46,0,0,1-18,4q-16.19-.26-26.63-10.7t-10.95-32.35q0-2.75.25-5.86t.74-6.59a85.63,85.63,0,0,1,7-22A145.28,145.28,0,0,1,233,375.49a130,130,0,0,1,20-16.31,92.17,92.17,0,0,1,21.28-10.45A54.6,54.6,0,0,1,295.55,345.87Zm-17.42,65.71a4.42,4.42,0,0,1-2.62-3.49,27.92,27.92,0,0,1-.62-6.1,43.7,43.7,0,0,1,.62-7.09c.42-2.49.79-4.64,1.12-6.47a16.77,16.77,0,0,1,3.12-6.35,35.73,35.73,0,0,1,5.1-5.48,54.7,54.7,0,0,1,5.35-4.1,42.88,42.88,0,0,1,4.1-2.49,7.51,7.51,0,0,0-3.48-.5q-5.47.51-12.69,4.36a71.36,71.36,0,0,0-13.69,9.58A104.24,104.24,0,0,0,252,397.26a138.32,138.32,0,0,0-10.33,15.81,123.53,123.53,0,0,0-7.72,16.3,69.89,69.89,0,0,0-4.11,15.06q-1.74,9.46.75,15.8c1.66,4.24,5.22,6.51,10.7,6.85A24.73,24.73,0,0,0,253.73,464a59.28,59.28,0,0,0,12.7-9.09,105.2,105.2,0,0,0,12.07-13.32,135.29,135.29,0,0,0,10.58-15.92,131.32,131.32,0,0,0,8-16.56,67.59,67.59,0,0,0,4.23-15.18l.12-1.23c-1.33,0-2.48.53-4.22,1.61a30.78,30.78,0,0,0-5,3.85,38,38,0,0,0-4.23,4.73,18.19,18.19,0,0,0-2.61,4.48C284,410.47,280.23,412.48,278.13,411.58Z"/><path class="cls-1" d="M779.21,352.7q-3.06,4.83-8.39,13.22t-11.57,18.69q-6.24,10.31-12.84,21.62T734.2,428.09q-5.6,10.56-9.4,19.45t-4.58,14.24c-.28,1.84-.18,2.45,1,2a48.55,48.55,0,0,0,14.49-8.26,123.9,123.9,0,0,0,13.73-13,195.42,195.42,0,0,0,12.71-15.51q6.11-8.25,11.7-16.14s1.86-3,3-4.45,2.29-2.84,3.31-4.2c.67-1,1.86-1.27,3.55-.76a16.34,16.34,0,0,1,5,2.54,13.78,13.78,0,0,1,3.81,4.2q1.4,2.42.39,4.19l-8.39,11.44Q774.11,438.38,762,453.26a185.85,185.85,0,0,1-25.55,26.06,56.46,56.46,0,0,1-5.84,4.45,59.07,59.07,0,0,1-7.89,4.45,62.18,62.18,0,0,1-9.15,3.43,34.67,34.67,0,0,1-9.66,1.4,16.68,16.68,0,0,1-9.15-2.8,16.38,16.38,0,0,1-5.47-6.74,27.75,27.75,0,0,1-2.29-9.66,54.87,54.87,0,0,1,.64-12.07c.33-1.87.76-3.86,1.27-6a41.64,41.64,0,0,1,1.78-5.72A240.08,240.08,0,0,1,712,400.63q13.59-24,28.09-47.42l13.73-21.36q5.85-9.64,11.57-19.7t10.93-19.7q5.21-9.66,9.66-18.69c3-6,4-7.92,6-13,1.8-3.05,6.86-6,11-3.53,3.38,2,6.95,3.69,9.91,6.74a30.65,30.65,0,0,1,6.74,10.55,15.15,15.15,0,0,1,0,11.57q-1.78,3.81-6,10.93T804,313q-5.47,8.91-11.45,18.44T781.24,349.4Z"/><path class="cls-1" d="M399.94,92.06A3.93,3.93,0,0,0,394,96c5.36,38.32,3,72.6-28.06,91.75a86.26,86.26,0,0,1-21.23,8.58c-10.09,2.72-22.42,4.4-40.05,5.46-5.3.31-10.65.61-16.31.92-29.55,1.63-63,3.48-96.75,9.19a333.82,333.82,0,0,0-59.76,15.6A242.15,242.15,0,0,0,77.7,255.37C59.36,267.83,45.25,281.5,35.81,296A93.76,93.76,0,0,0,24,321.45a78.71,78.71,0,0,0-2.83,24.19c.72,17.19,7,26.92,9.74,30.34a26.77,26.77,0,0,0,3.1,3.49,18.09,18.09,0,0,0,2.63,2.28L38.26,383a5.46,5.46,0,0,0,7.84-7.37l-1.25-1.91-.19-.27a13.23,13.23,0,0,1-.83-1.56,3.07,3.07,0,0,0-.17-.31,23.22,23.22,0,0,1-1.14-2.68.14.14,0,0,0,0-.07c-.84-2.21-3.42-10.31-1.13-22a50,50,0,0,1,5.13-14.39,55.06,55.06,0,0,1,10.56-13.25C65.55,311.22,77.31,304.63,93,299a211.32,211.32,0,0,1,47.05-11.29,358.94,358.94,0,0,1,45.86-2.56l6.53,0c12.53.14,25.55.63,38.14,1.11,15.29.58,31.1,1.18,46.7,1.18,9.9,0,18.82-.24,27.27-.73,22.1-1.33,40.69-5.31,56.85-12.17a125.51,125.51,0,0,0,46.21-33.37,123,123,0,0,0,19.17-29.58C450.71,161.92,445.19,120.65,399.94,92.06Zm26.63,101.62a115.29,115.29,0,0,1-24.21,43.53,120.65,120.65,0,0,1-44.66,32,131.37,131.37,0,0,1-17.49,5.91c3.33-3.82,5.36-7.1,6.15-9.95a1.5,1.5,0,0,0-1.44-1.91,1.48,1.48,0,0,0-.46.08,79.92,79.92,0,0,1-24.31,3.42c-2.83,0-5.79-.11-8.85-.33a90.36,90.36,0,0,0,26-20.82,1.49,1.49,0,0,0,.23-1.59,1.52,1.52,0,0,0-1.35-.89c-1.58,0-3.16,0-4.75,0a493.34,493.34,0,0,0-69.78,5.41A290.32,290.32,0,0,1,328.29,224a1.5,1.5,0,0,0-.34-3,1.1,1.1,0,0,0-.25,0c-16.5,2.72-29.05,4-39.48,4A88.57,88.57,0,0,1,272,223.71a118.15,118.15,0,0,0,30-14.94l.74,0c18.53-1.08,31.59-2.84,42.34-5.71a94.44,94.44,0,0,0,28.46-12.42c14-9.28,23.13-20.56,28.79-35.5a92.53,92.53,0,0,0,6.13-31.78c0-3.94,0-6.88-.16-8.75,0-.23,0-.44,0-.65h0a24.25,24.25,0,0,1,6.13,4.21,43.73,43.73,0,0,1,8.83,12.13A72,72,0,0,1,430.2,155,99.09,99.09,0,0,1,426.57,193.68Z"/><path class="cls-1" d="M409.89,116.51a30.6,30.6,0,0,1,3.48,2.7,42.09,42.09,0,0,1,8.54,11.72,70.53,70.53,0,0,1,6.8,24.19,97.66,97.66,0,0,1-3.58,38.14,113.9,113.9,0,0,1-23.9,43,119.41,119.41,0,0,1-44.12,31.58,126.87,126.87,0,0,1-12.81,4.57,22.37,22.37,0,0,0,3.51-6.84,3,3,0,0,0-.81-3,3,3,0,0,0-2.08-.84,2.91,2.91,0,0,0-.92.15,78.46,78.46,0,0,1-23.85,3.35c-1.2,0-2.43,0-3.67-.06a91.17,91.17,0,0,0,22-18.61,3,3,0,0,0-2.23-5q-2.37,0-4.77,0a476.76,476.76,0,0,0-60.91,4.2,289,289,0,0,1,58.08-20.34,3,3,0,0,0-.68-5.92,2.7,2.7,0,0,0-.49,0c-16.43,2.71-28.9,4-39.24,4-3.56,0-6.85-.14-9.91-.44a125.7,125.7,0,0,0,24.19-12.83l.32,0c18.64-1.09,31.79-2.87,42.62-5.75a96.09,96.09,0,0,0,28.93-12.63c14.25-9.46,23.58-21,29.35-36.2A93.83,93.83,0,0,0,410,123.36v-.07c0-2.74,0-5-.07-6.78m-3.14-4.81s0,1,.06,3,.16,4.88.15,8.61a91.2,91.2,0,0,1-6,31.28c-4.9,12.92-13,24.72-28.22,34.79a92.29,92.29,0,0,1-28,12.22c-11.37,3-25.11,4.67-42,5.66l-1.14.07c-11.07,7.48-22.74,13.32-35.36,16.55a78.86,78.86,0,0,0,22.07,2.67c12,0,25.53-1.67,39.73-4a289,289,0,0,0-74.61,28.74c27.26-4.25,53.43-6.68,78.12-6.68,1.59,0,3.16,0,4.73,0a88.83,88.83,0,0,1-30.26,22.81,130.36,130.36,0,0,0,14.22.82,80.73,80.73,0,0,0,24.77-3.5c-1.06,3.79-4.47,8.23-9.27,13a140,140,0,0,0,22.62-7.2,122.69,122.69,0,0,0,45.22-32.37A117.13,117.13,0,0,0,428,194.1a100.17,100.17,0,0,0,3.68-39.3,73,73,0,0,0-7.1-25.21A45.37,45.37,0,0,0,415.41,117a24.91,24.91,0,0,0-6.49-4.44,13.77,13.77,0,0,0-2.17-.87Z"/><path class="cls-1" d="M604,287.26c-1.74-.17-4-.3-6.79-.39s-5.05-.13-6.79-.13A196,196,0,0,0,556,289.87l7.58-13.31a15.66,15.66,0,0,0,0-11.88,31.79,31.79,0,0,0-6.92-10.83,29,29,0,0,0-10.18-6.92q-5.62-2.2-9.79-.13-9.93,24.27-29.5,58.22-10.46,4.44-20.76,9.92t-21,12.27a16,16,0,0,0-6.13,6.52,9.76,9.76,0,0,0-.92,6.66,7,7,0,0,0,3.79,4.57c2,1,4.56,1,7.7,0l.78-.27,17.49-8.87-5.76,8.92Q474.51,357,466.81,369.8t-14.75,25.85Q445,408.7,439,422a236.73,236.73,0,0,0-10.18,26.63,42.16,42.16,0,0,0-1.83,5.88c-.52,2.17-1,4.22-1.31,6.13a56.67,56.67,0,0,0-.65,12.4,28.69,28.69,0,0,0,2.35,9.92,17,17,0,0,0,5.61,6.92,17.25,17.25,0,0,0,9.4,2.87,35.48,35.48,0,0,0,9.92-1.44,62.89,62.89,0,0,0,9.4-3.52,58.68,58.68,0,0,0,8.09-4.57,57.66,57.66,0,0,0,6-4.57,190.9,190.9,0,0,0,26.23-26.76q12.4-15.27,23.1-30.15L533.77,410c.69-1.22.56-2.65-.39-4.31a14.29,14.29,0,0,0-3.92-4.31,16.76,16.76,0,0,0-5.09-2.61c-1.74-.52-3-.26-3.65.79-1.05,1.39-2.18,2.83-3.4,4.3s-2.34,3-3.39,4.57h.26q-5.75,8.1-12,16.58a200,200,0,0,1-13.05,15.92A126.89,126.89,0,0,1,475,454.26a49.81,49.81,0,0,1-14.88,8.48,2.57,2.57,0,0,1-1.82,0v0c-30.48-27.74,10.6-43.55,25.47-55.32.72-1.26,1.44-2.51,2.19-3.79q6.78-11.61,13.18-22.19t11.88-19.19q5.48-8.61,8.61-13.57l2.09-3.39q3.66-5.49,7.44-11.49c2.52-4,7.37-11.8,9.81-16a178,178,0,0,1,18.53-3.14,159.87,159.87,0,0,1,18-1c1.91,0,3.83.05,5.75.13s3.74.22,5.48.39c2.09,0,4.22-.95,6.4-2.87a32.85,32.85,0,0,0,5.87-6.92,35.26,35.26,0,0,0,4-8.61A19.54,19.54,0,0,0,604,287.26Z"/><path class="cls-1" d="M454.39,373.69a17.9,17.9,0,0,0,1.89-7.6,30.85,30.85,0,0,0-.59-8.31,9.41,9.41,0,0,0-2.85-5.46c-1.34-1.11-3-.79-5.1.95l-.24.47c-9.34,9.66-17.48,17.51-28.4,27.56s-22.31,20-34.18,29.79q-.24-21.58,0-53.17-3.09-8.31-9-8.31-4.27,0-8.79,3.44a39.31,39.31,0,0,0-7.12,6.77l-17.57,24.92q-6.17,8.79-11.75,16.86t-9.37,14l.47-.23a3.33,3.33,0,0,0,0,3.8,12.48,12.48,0,0,0,3.32,3.79,13.93,13.93,0,0,0,4.51,2.38q2.37.72,3.57-.48l12.58-17.09,7.59-10.21q0,8.32.24,17.93t.71,19.34q-20.18,14.73-39.64,26.71a354.2,354.2,0,0,1-37.51,20.3c-2.37,2.06-3.72,4.2-4,6.41a7,7,0,0,0,1.3,5.58,8.06,8.06,0,0,0,5.1,2.85,9.85,9.85,0,0,0,6.89-1.55,227.58,227.58,0,0,0,34.54-16.26q17.69-10.08,35.49-22.67,2.37,15,7.24,25.17t13.41,10.91a28.19,28.19,0,0,0,15.2-3.44,65.73,65.73,0,0,0,14.24-10.44,134.78,134.78,0,0,0,13.3-14.72q6.4-8.19,12.1-16l9-12.1,13.06-18a3.79,3.79,0,0,0-.36-3.92,12.72,12.72,0,0,0-3.56-3.92c-1.5-1.1.28-2.61-1.3-3.08s-2.69-.24-3.33.71q-5.93,8.07-10,13.53t-6.88,9q-2.85,3.56-4.63,5.93t-3.44,4.51q-3.57,4.05-7,7.72t-6.64,6.65a45.05,45.05,0,0,1-5.94,4.74,7.57,7.57,0,0,1-4.86,1.55,2.79,2.79,0,0,1-1.16-.35v0l0,0a8.37,8.37,0,0,1-2.66-2.59c-24.88-25.77,12.7-40.9,27.54-52.25q1.89-1.68,3.75-3.37l.32-.37-.07.15C435.7,391.34,444.58,383.17,454.39,373.69Z"/><path class="cls-1" d="M664.92,414.06a13.82,13.82,0,0,0-3.8-3.91,14.12,14.12,0,0,0-5-2.26c-1.75-.39-2.93-.2-3.56.59-.64,1.11-1.27,2.14-1.9,3.09a23.53,23.53,0,0,1-2.85,3.32q-5.24,7.37-11,15.32a191.77,191.77,0,0,1-12.11,15A120.2,120.2,0,0,1,613.6,456c.59,1,.83,1.76.52,2.22,0,0-8.8,6.18-9.38,6.66a6.89,6.89,0,0,1-5,1.6,7.84,7.84,0,0,1-4.32-1.8,12,12,0,0,1-2.57-3.87c-.91-1.68.52-4.54,1.9-5.84l6.4-8c.62-.91.92-.92,2.6.28q2.34-4.9,5-10t5.34-9.74q1.18-2.13,2.37-4.15c.79-1.34,1.5-2.57,2.14-3.68a12.11,12.11,0,0,0,.83-6.88,22,22,0,0,0-2.49-7,28,28,0,0,0-4.75-6.3,36.65,36.65,0,0,0-6.18-5,10,10,0,0,0,3.92.71,26.27,26.27,0,0,0,4.39-.36,11.71,11.71,0,0,0,3.68-1.18,3.16,3.16,0,0,0,1.79-2.26,74.06,74.06,0,0,0,1.77-12.46,48.43,48.43,0,0,0-.71-11.87,24.47,24.47,0,0,0-4-9.73,16.81,16.81,0,0,0-8.67-6.06,55.59,55.59,0,0,0-6.17-1.42,35.69,35.69,0,0,0-5.93-.48,53.34,53.34,0,0,0-21,4.51A102.41,102.41,0,0,0,554.29,366a147.77,147.77,0,0,0-19.35,17.33,208.55,208.55,0,0,0-16.73,20.18,167,167,0,0,0-13.06,20.89,96.36,96.36,0,0,0-7.83,19.23,54.37,54.37,0,0,0-2.14,8.54,68.81,68.81,0,0,0-.36,12.23,33.55,33.55,0,0,0,3,12.23,26.26,26.26,0,0,0,7.95,9.85q5.36,4.14,14.37,5.1,10-.24,20.89-7.48a166.91,166.91,0,0,0,21.6-17.21q-1.19,10.69,3.44,17.81t16,8.07a28.3,28.3,0,0,0,9.26-1.07,47.56,47.56,0,0,0,8.43-3.32,60.14,60.14,0,0,0,7.12-4.28,61.17,61.17,0,0,0,5.34-4.15,164,164,0,0,0,24.57-24.57q11-13.65,21.24-27.66v-.24l6.89-9.49C665.87,416.87,665.87,415.57,664.92,414.06Zm-76.56-7.36q-3,6.76-6.53,13.89-4,5.46-9.85,12.35t-11.87,12.94q-6.06,6-11.51,10.56c-3.65,3-6.65,4.83-9,5.46a13.59,13.59,0,0,1-5.93.47,4.89,4.89,0,0,1-3.21-2.13,7.35,7.35,0,0,1-1.06-4,27.7,27.7,0,0,1,.47-5,46.91,46.91,0,0,1,1.66-7.71,52.64,52.64,0,0,1,2.38-6.53,169.13,169.13,0,0,1,11-20.65A166.58,166.58,0,0,1,560.47,395a98.14,98.14,0,0,1,17.8-16.5q9.26-6.52,18-6.29a7.68,7.68,0,0,1,4.51,1.67,7.81,7.81,0,0,1,2.38,3.67,16.29,16.29,0,0,1,.71,4.87c0,1.75-.18,3.4-.24,5a14.74,14.74,0,0,1-.12,1.91c0,.61-.09,1.2-.12,1.66a2.39,2.39,0,0,0,.72,2.61,23.21,23.21,0,0,0-6.53-2.61c-2.14-.48-4.1-.51-4.47,0l-.63,4.24A75.65,75.65,0,0,1,588.36,406.7Z"/></svg>